# xmcd
#
# Track frame offsets:
#	150
#	11077
#	21302
#	34434
#	47757
#	61187
#	72681
#	85922
#	101141
#	114642
#	126798
#	137821
#	151286
#	166123
#
# Disc length: 2370 seconds
#
# Revision: 0
# Processed by: cddbd v1.4PL0 Copyright (c) Steve Scherf et al.
# Submitted via: audiograbber 1.82.02
#
DISCID=c409400e
DTITLE=Greg Champion - Stand Back Australia
DYEAR=2000
DGENRE=Country
TTITLE0=Need A Cup Of Tea and And A Good Lie Down
TTITLE1=Still Haven't Been On Burke's Backyard
TTITLE2=Sensitive New Age Guys From The Bush
TTITLE3=Can't Be Stuffed
TTITLE4=Hanky Panky (When You're Feeling Cranky)
TTITLE5=I Love Line Dancing (But Line Dancers Freak Me Out)
TTITLE6=Don't Call Wagga Wagga Wagga
TTITLE7=I Like My Rock and Roll Country
TTITLE8=That Is A Beautiful Beer
TTITLE9=Korweinguboora
TTITLE10=Gotta Do The Gardening
TTITLE11=I Made A Hundred In The Backyard At Mum's
TTITLE12=May Your Fridge Be Full Of Coldies
TTITLE13=The French Song
EXTD=
EXTT0=
EXTT1=
EXTT2=
EXTT3=
EXTT4=
EXTT5=
EXTT6=
EXTT7=
EXTT8=
EXTT9=
EXTT10=
EXTT11=
EXTT12=
EXTT13=
PLAYORDER=
